<svg xmlns="http://www.w3.org/2000/svg" viewBox="0 0 1000 1000"><defs>

	<style>
		
		.d{
		fill: none;
		stroke: #000;
		stroke-width: 2;


		}

		.c {
			fill: none;
			stroke: #000;
			stroke-width: 2;
		
		}
	.d, .c {
  			stroke-dasharray: 8000;
  			stroke-dashoffset: 8000;
  			animation: dash 5s linear forwards;
}

@keyframes dash {
  to {
    stroke-dashoffset: 0;
  }
}
	</style>

</defs><title>LH</title>
<g class="a">

<path class="c" d="M527.7,491.39q0-115.66,0-231.32c0-2.62-.08-5.25-.29-7.87-1.18-14.23-3.31-16.92-17.5-18.91-10.37-1.45-20.9-1.82-31.35-2.74-5-.45-11.92.71-11.51-7.1.42-8,7.39-7,12.85-6.83,21.32.49,42.63,1.66,63.94,1.65,35.09,0,70.21,1.52,105.26-1.56,5.14-.45,10.48-1,15.55,1.17,3,1.26,5.06,3,4.88,6.55-.17,3.31-2.81,4.38-5.27,5.06-7.64,2.1-15.53,2.24-23.4,2.41-28.76.61-32.08,3.57-32.23,32.61-.31,61.69,0,123.37-.36,185.06,0,6.52,2.21,7.31,7.83,7.3q112.71-.26,225.42,0c5.74,0,7.81-.95,7.77-7.36-.4-60.37-.07-120.75-.68-181.12-.33-33.3-4.24-36.57-37.62-37.63-6.23-.2-12.47-.07-18.69-.44-3.94-.24-6.93-2.13-7-6.66-.07-4.17,3-5.69,6.26-6.45a39.21,39.21,0,0,1,8.79-.63q86.63,0,173.25,0c6.24,0,16-1.54,16.17,6.43s-9.85,6.48-15.86,7.21c-9.75,1.18-19.64,1.2-29.45,2-9.27.74-15.47,5-15.88,15.16-.36,8.84-1.15,17.68-1.15,26.52q-.07,216.07.09,432.14c0,8.83,1.24,17.66,1.56,26.5.28,7.73,4.16,12,11.49,13.73,12.53,3,25.23,3.77,38.05,3.75,5,0,11.83-1.71,11.72,6.39-.1,7.25-6.68,7.3-11.77,7.33-36.75.18-73.5.1-110.25.11q-33,0-66,0a45.42,45.42,0,0,1-7.86-.25c-3.72-.66-8.86-.62-8.87-5.77,0-4.53,5-5,8.23-5.44,11.66-1.73,23.4-3,35.14-4.19,16.36-1.69,19.43-4.31,19.5-20.63.36-81.37.38-162.74.73-244.12,0-5.6-1.54-7.09-7.1-7.08q-113.2.26-226.41,0c-6.34,0-7.45,1.92-7.43,7.74.2,74.81.14,149.62.2,224.44a114.86,114.86,0,0,0,.77,13.75c2.51,20.61,5.19,23.19,26.07,25.75,9.42,1.16,18.86,2.21,28.25,3.63,3.43.52,7.89,1.18,7.47,6-.39,4.4-4.74,5.09-8.18,5.76a52.25,52.25,0,0,1-9.81.49q-84.16,0-168.33,0a51.56,51.56,0,0,1-5.9-.13c-4.76-.55-11.44-.08-11.52-6.33-.07-5.91,6.53-6.64,11.29-7.21,10.41-1.25,21-1.39,31.32-3,15.24-2.41,17.63-5.18,17.66-20.6q.22-117.63.07-235.26Z"/>

<path class="d" d="M116.63,216.55H204.2a55,55,0,0,1,7.86.21c4.75.69,9.35,2.12,9.17,8.15-.16,5.41-4.6,5.39-8.54,6.06-13,2.23-26.17.59-39.21,2.79-10.18,1.72-15.07,7.11-15.63,16.88-.62,10.8-1.25,21.62-1.25,32.43q-.12,225.83-.25,451.66c0,8.51,1.94,11.1,10.71,11.15,54.44.3,108.89,1.33,163.06-5.67a216.13,216.13,0,0,0,23.12-4.53c33.89-8.21,51.55-31.16,58.22-64.22,2.6-12.89,4-25.89,5.16-38.94.57-6.22,2.76-11,10.2-10.34,6.88.64,8.06,5.62,8.07,11.32.1,43.29.15,86.58-1.85,129.85-.34,7.39-4.44,6.8-9,6.37-32.34-3.08-64.75-4-97.24-4.09-97.41-.34-194.81-1.21-292.21-1.94-5.21,0-10.5.62-15.62-1.13-3-1-5.63-2.29-5.43-6,.17-3.24,2.79-4.06,5.37-4.86,8.24-2.55,16.8-2.8,25.27-3.38,30.9-2.12,34.15-5.37,34.16-36.76,0-147.27.4-294.55-.23-441.82-.17-40.66-.54-36.6-38.38-39.26-5.23-.37-10.52.12-15.73-.36-4.85-.45-10.72-.95-10.39-7.76.31-6.56,6-5.83,10.48-5.84Q70.38,216.49,116.63,216.55Z"/></g>

</svg>